<?xml version="1.0" encoding="UTF-8" standalone="no"?>
<svg
   xmlns:dc="http://purl.org/dc/elements/1.1/"
   xmlns:cc="http://creativecommons.org/ns#"
   xmlns:rdf="http://www.w3.org/1999/02/22-rdf-syntax-ns#"
   xmlns:svg="http://www.w3.org/2000/svg"
   xmlns="http://www.w3.org/2000/svg"
   viewBox="0 0 380 918.66669"
   height="918.66669"
   width="380"
   xml:space="preserve"
   id="svg2"
   version="1.1"><metadata
     id="metadata8"><rdf:RDF><cc:Work
         rdf:about=""><dc:format>image/svg+xml</dc:format><dc:type
           rdf:resource="http://purl.org/dc/dcmitype/StillImage" /></cc:Work></rdf:RDF></metadata><defs
     id="defs6" /><g
     transform="matrix(1.3333333,0,0,-1.3333333,0,918.66667)"
     id="g10"><text
       id="text18"
       style="font-variant:normal;font-weight:bold;font-stretch:normal;font-size:12px;font-family:Metropolis;-inkscape-font-specification:Metropolis-Bold;writing-mode:lr-tb;fill:#100f0d;fill-opacity:1;fill-rule:nonzero;stroke:none"
       transform="matrix(1,0,0,-1,13.1538,671.4741)"><tspan
         id="tspan12"
         y="0"
         x="0 3.336 12.516 20.004 27.552 36.456001 45.636002 53.880001 61.464001 68.952003 72.192001 81.828003 89.328003 92.568001 101.376 110.28 118.308 127.212 134.7 142.188 152.48399 160.06799 169.248 176.772">INSTANCES OF HARASSMENT </tspan><tspan
         id="tspan14"
         y="14.184"
         x="0 7.5840001 16.007999 23.82 31.403999 39.431999 42.768002 50.352001 59.532001 67.776001 75.360001 84.384003 87.624001 95.903999 104.124 107.364 114.852 123.804 131.832 140.73599 148.32001 156.53999 164.12399 173.14799">EXPERIENCED BY SURVEYED </tspan><tspan
         id="tspan16"
         y="28.368"
         x="0.012 10.308 17.892 25.92 34.152 42.959999 51.863998 61.043999 68.603996">MERCHANTS</tspan></text>
<path
       id="path20"
       style="fill:#d075c1;fill-opacity:1;fill-rule:nonzero;stroke:none"
       d="m 13.143,632.989 h 231.95 v -20 H 13.143 Z" /><text
       id="text24"
       style="font-variant:normal;font-weight:900;font-stretch:normal;font-size:11px;font-family:'Metropolis Black';-inkscape-font-specification:Metropolis-Black;writing-mode:lr-tb;fill:#ffffff;fill-opacity:1;fill-rule:nonzero;stroke:none"
       transform="matrix(1,0,0,-1,234.877,618.6167)"><tspan
         id="tspan22"
         y="0"
         x="0">9</tspan></text>
<text
       id="text32"
       style="font-variant:normal;font-weight:normal;font-stretch:normal;font-size:9px;font-family:Metropolis;-inkscape-font-specification:Metropolis-Regular;writing-mode:lr-tb;fill:#6b4447;fill-opacity:1;fill-rule:nonzero;stroke:none"
       transform="matrix(1,0,0,-1,13.1431,602.9893)"><tspan
         id="tspan26"
         y="0"
         x="0 7.02 14.715 22.329 28.746 31.761 39.591 47.195999 50.696999 57.446999 63.980999 70.667999 77.210999 84.338997 90.908997 97.443001 105.201 108.711 111.726 119.556 126.126 132.66 139.41 146.151 153.765 160.452 167.022 170.04601 178.209 186.039 192.45599 195.957 204.12 209.97">CAUSING REPEATED INTERRUPTIONS OR </tspan><tspan
         id="tspan28"
         y="9.9989996"
         x="0 7.7579999 10.773 17.190001 24.066 32.229 40.058998 46.629002 49.653 57.483002 65.097 72.792 80.622002 87.633003 94.176003 100.593 104.094 112.257 118.638 122.139 129.078 137.241 144.855 151.605 155.106 161.649 168.06599 174.483 181.026 188.856 195.42599 198.44099 206.136 211.131">DISCONTINUANCES OF YOUR ESSENTIAL </tspan><tspan
         id="tspan30"
         y="19.997999"
         x="0 6.4169998 12.951 19.701 27.396 30.410999 37.431 43.973999">SERVICES</tspan></text>
<path
       id="path34"
       style="fill:#d075c1;fill-opacity:1;fill-rule:nonzero;stroke:none"
       d="m 13.143,570.989 h 206.15 v -20 H 13.143 Z" /><text
       id="text38"
       style="font-variant:normal;font-weight:900;font-stretch:normal;font-size:11px;font-family:'Metropolis Black';-inkscape-font-specification:Metropolis-Black;writing-mode:lr-tb;fill:#ffffff;fill-opacity:1;fill-rule:nonzero;stroke:none"
       transform="matrix(1,0,0,-1,209.2974,556.6167)"><tspan
         id="tspan36"
         y="0"
         x="0">8</tspan></text>
<text
       id="text46"
       style="font-variant:normal;font-weight:normal;font-stretch:normal;font-size:9px;font-family:Metropolis;-inkscape-font-specification:Metropolis-Regular;writing-mode:lr-tb;fill:#6b4447;fill-opacity:1;fill-rule:nonzero;stroke:none"
       transform="matrix(1,0,0,-1,13.1431,540.9893)"><tspan
         id="tspan40"
         y="0"
         x="0 7.6139998 14.031 17.055 24.885 32.480999 35.991001 42.372002 50.535 57.285 64.295998 70.830002 74.339996 81.863998 89.459999 97.154999 100.179 108.009 114.426 120.996 124.497 131.436 139.599 147.213 150.714 158.877 165.627 169.12801 175.698 183.069 189.81 196.353 203.49001 210.06 216.59399 224.424 227.448 235.278 241.983">USING FORCE AGAINST YOU OR THREATENING </tspan><tspan
         id="tspan42"
         y="9.9989996"
         x="0 6.1830001 14.346 17.856001 25.469999 31.886999 38.421001 41.931 48.303001 56.466 63.216 70.226997 76.761002 80.271004 87.794998 95.400002 103.095 106.119 113.949 120.366 126.936 130.437 137.37601 145.539 153.153 156.66299 164.826 171.567 175.077 182.01601 190.179 197.793 203.64301">TO USE FORCE AGAINST YOU OR YOUR </tspan><tspan
         id="tspan44"
         y="19.997999"
         x="0 7.02 12.906 15.93 22.464001 30.294001 36.863998 43.280998 47.907001 54.926998 62.541 68.958 75.140999 83.304001 91.889999 98.432999 105.174">CLIENTS/CUSTOMERS</tspan></text>
<path
       id="path48"
       style="fill:#d075c1;fill-opacity:1;fill-rule:nonzero;stroke:none"
       d="m 13.143,508.989 h 180.35 v -20 H 13.143 Z" /><text
       id="text52"
       style="font-variant:normal;font-weight:900;font-stretch:normal;font-size:11px;font-family:'Metropolis Black';-inkscape-font-specification:Metropolis-Black;writing-mode:lr-tb;fill:#ffffff;fill-opacity:1;fill-rule:nonzero;stroke:none"
       transform="matrix(1,0,0,-1,183.8271,494.6167)"><tspan
         id="tspan50"
         y="0"
         x="0">7</tspan></text>
<text
       id="text60"
       style="font-variant:normal;font-weight:normal;font-stretch:normal;font-size:9px;font-family:Metropolis;-inkscape-font-specification:Metropolis-Regular;writing-mode:lr-tb;fill:#6b4447;fill-opacity:1;fill-rule:nonzero;stroke:none"
       transform="matrix(1,0,0,-1,13.1431,478.9893)"><tspan
         id="tspan54"
         y="0"
         x="0 6.4169998 12.357 20.052 26.792999 33.362999 36.387001 44.216999 51.821999 55.332001 62.208 70.371002 77.985001 84.725998 91.295998 94.806 101.493 108.243 116.406 123.417 129.96001 136.494 144.252 147.267 155.097 162.702 169.119 172.629 180.153 187.758 195.453 198.468 206.298 212.715 219.285 222.795 229.73399 237.897 244.61099">STARTING COURT PROCEEDINGS AGAINST YOU </tspan><tspan
         id="tspan56"
         y="9.9989996"
         x="0 10.629 17.990999 24.534 32.363998 35.865002 42.804001 50.966999 58.581001 62.091 69.786003 76.527 83.07 86.580002 94.410004 102.573 109.143 112.653 115.677 123.507 127.017 134.76601 141.30901 147.681 155.37601 162.99001 168.633 175.203 178.713 186.327 194.157 201.91499 208.45799 215.19901 218.709 225.64799 233.811 241.425 247.27499">WHEN YOU ARE NOT IN DEFAULT UNDER YOUR </tspan><tspan
         id="tspan58"
         y="19.997999"
         x="0 5.895 12.429 20.124001 26.541">LEASE</tspan></text>
<path
       id="path62"
       style="fill:#d075c1;fill-opacity:1;fill-rule:nonzero;stroke:none"
       d="m 13.143,446.989 h 103.075 v -20 H 13.143 Z" /><text
       id="text66"
       style="font-variant:normal;font-weight:900;font-stretch:normal;font-size:11px;font-family:'Metropolis Black';-inkscape-font-specification:Metropolis-Black;writing-mode:lr-tb;fill:#ffffff;fill-opacity:1;fill-rule:nonzero;stroke:none"
       transform="matrix(1,0,0,-1,105.9033,432.6167)"><tspan
         id="tspan64"
         y="0"
         x="0">4</tspan></text>
<text
       id="text74"
       style="font-variant:normal;font-weight:normal;font-stretch:normal;font-size:9px;font-family:Metropolis;-inkscape-font-specification:Metropolis-Regular;writing-mode:lr-tb;fill:#6b4447;fill-opacity:1;fill-rule:nonzero;stroke:none"
       transform="matrix(1,0,0,-1,13.1431,416.9893)"><tspan
         id="tspan68"
         y="0"
         x="0 7.6950002 14.706 21.726 28.268999 34.686001 37.709999 45.540001 53.136002 56.646 63.584999 71.748001 79.362 86.112 89.612999 96.488998 104.652 113.238 121.824 128.367 135.108 142.12801 145.14301 152.838 158.733 162.23399 168.651 175.338 183.033 190.05299 195.696">ACCESING YOUR COMMERCIAL SPACE </tspan><tspan
         id="tspan70"
         y="9.9989996"
         x="0 3.0239999 10.854 18.549 25.236 31.931999 38.673 46.835999 53.522999 60.272999 63.297001 69.831001 76.401001 82.295998 89.235001 92.745003 100.908 107.658 111.159 121.788 129.159 132.174 138.744 146.106 154.269 161.883 168.453 171.95399 178.89301 187.056 194.67 200.52">INAPPROPRIETLY OR WHITHOUT YOUR </tspan><tspan
         id="tspan72"
         y="19.997999"
         x="0 6.8759999 15.039 22.868999 29.285999 35.828999 43.659 50.229">CONSENT*</tspan></text>
<path
       id="path76"
       style="fill:#d075c1;fill-opacity:1;fill-rule:nonzero;stroke:none"
       d="m 13.143,384.989 h 76.55 v -20 h -76.55 z" /><text
       id="text80"
       style="font-variant:normal;font-weight:900;font-stretch:normal;font-size:11px;font-family:'Metropolis Black';-inkscape-font-specification:Metropolis-Black;writing-mode:lr-tb;fill:#ffffff;fill-opacity:1;fill-rule:nonzero;stroke:none"
       transform="matrix(1,0,0,-1,79.8843,370.6167)"><tspan
         id="tspan78"
         y="0"
         x="0">3</tspan></text>
<text
       id="text86"
       style="font-variant:normal;font-weight:normal;font-stretch:normal;font-size:9px;font-family:Metropolis;-inkscape-font-specification:Metropolis-Regular;writing-mode:lr-tb;fill:#6b4447;fill-opacity:1;fill-rule:nonzero;stroke:none"
       transform="matrix(1,0,0,-1,13.1431,354.9893)"><tspan
         id="tspan82"
         y="0"
         x="0 3.0239999 10.854 17.424 23.966999 30.708 37.089001 43.632 50.373001 53.396999 61.227001 68.822998 72.333 82.961998 85.976997 92.546997 99.908997 103.419 110.358 118.521 126.135 132.87601 136.386 143.424 151.03799 157.455 160.479 168.30901 174.843 181.25999 187.677 191.187 198.22501 205.164 208.674 216.423 224.586 227.601 235.431 242.136">INTERFERING WITH YOUR BUSINESS BY DOING </tspan><tspan
         id="tspan84"
         y="9.9989996"
         x="0 7.6139998 15.444 23.274 29.816999 36.827999 43.370998 49.787998 57.483002 63.917999 70.857002 74.366997 81.242996 89.405998 97.236 103.653 110.223 116.973 124.587 131.60699 138.177 141.201 149.364 157.194 160.69501 168.858 175.608 179.10899 185.85899 192.39301 199.089 206.784 209.799 216.549">UNNECESARY CONSTRUCTION OR REPAIRS</tspan></text>
<path
       id="path88"
       style="fill:#d075c1;fill-opacity:1;fill-rule:nonzero;stroke:none"
       d="m 13.143,332.639 h 51.538 v -19.65 H 13.143 Z" /><text
       id="text92"
       style="font-variant:normal;font-weight:900;font-stretch:normal;font-size:11px;font-family:'Metropolis Black';-inkscape-font-specification:Metropolis-Black;writing-mode:lr-tb;fill:#ffffff;fill-opacity:1;fill-rule:nonzero;stroke:none"
       transform="matrix(1,0,0,-1,54.8057,318.4414)"><tspan
         id="tspan90"
         y="0"
         x="0">2</tspan></text>
<text
       id="text98"
       style="font-variant:normal;font-weight:normal;font-stretch:normal;font-size:9px;font-family:Metropolis;-inkscape-font-specification:Metropolis-Regular;writing-mode:lr-tb;fill:#6b4447;fill-opacity:1;fill-rule:nonzero;stroke:none"
       transform="matrix(1,0,0,-1,13.1431,302.9893)"><tspan
         id="tspan94"
         y="0"
         x="0 6.75 13.284 21.870001 30.033001 37.728001 40.751999 48.582001 56.178001 59.688 66.626999 74.790001 82.403999 89.153999 92.654999 99.350998 105.885 112.635 119.052 127.215 135.045 142.74001 148.62601 152.136 158.832 165.573 173.73599 180.423 186.966 193.716 200.286 207.22501 210.735 217.10699 223.85699 232.02 239.70599">REMOVING YOUR PERSONAL PROPERTY FROM </tspan><tspan
         id="tspan96"
         y="9.9989996"
         x="0 6.5700002 13.932 20.475 23.985001 30.861 39.023998 47.610001 56.195999 62.73 69.480003 76.490997 79.514999 87.209999 93.105003 96.614998 103.302 110.052 118.215 124.902 131.44501 138.186 144.756">THE COMMERCIAL PROPERTY</tspan></text>
<path
       id="path100"
       style="fill:#d075c1;fill-opacity:1;fill-rule:nonzero;stroke:none"
       d="m 13.143,280.639 h 51.538 v -19.65 H 13.143 Z" /><text
       id="text104"
       style="font-variant:normal;font-weight:900;font-stretch:normal;font-size:11px;font-family:'Metropolis Black';-inkscape-font-specification:Metropolis-Black;writing-mode:lr-tb;fill:#ffffff;fill-opacity:1;fill-rule:nonzero;stroke:none"
       transform="matrix(1,0,0,-1,54.8057,266.4414)"><tspan
         id="tspan102"
         y="0"
         x="0">2</tspan></text>
<text
       id="text110"
       style="font-variant:normal;font-weight:normal;font-stretch:normal;font-size:9px;font-family:Metropolis;-inkscape-font-specification:Metropolis-Regular;writing-mode:lr-tb;fill:#6b4447;fill-opacity:1;fill-rule:nonzero;stroke:none"
       transform="matrix(1,0,0,-1,13.1431,250.9893)"><tspan
         id="tspan106"
         y="0"
         x="0 6.6960001 13.437 19.98 27.674999 34.209 42.039001 48.609001 51.624001 59.453999 67.050003 70.551003 77.489998 85.653 93.266998 96.777 103.149 109.899 118.062 126.648 130.158 136.692 144.522 151.092 157.63499 164.37601 167.39999 175.23 182.826 186.336 193.27499 201.438 209.052 214.90199">PREVENTING YOU FROM ENTERING YOUR </tspan><tspan
         id="tspan108"
         y="9.9989996"
         x="0 6.8759999 15.039 23.625 32.210999 38.744999 45.486 52.506001 55.521 63.216 69.111 72.612 79.028999 85.724998 93.419998 100.44 106.128">COMMERCIAL SPACE </tspan></text>
<path
       id="path112"
       style="fill:#d075c1;fill-opacity:1;fill-rule:nonzero;stroke:none"
       d="m 13.143,234.639 h 51.538 v -19.65 H 13.143 Z" /><text
       id="text116"
       style="font-variant:normal;font-weight:900;font-stretch:normal;font-size:11px;font-family:'Metropolis Black';-inkscape-font-specification:Metropolis-Black;writing-mode:lr-tb;fill:#ffffff;fill-opacity:1;fill-rule:nonzero;stroke:none"
       transform="matrix(1,0,0,-1,54.8057,220.4414)"><tspan
         id="tspan114"
         y="0"
         x="0">2</tspan></text>
<text
       id="text122"
       style="font-variant:normal;font-weight:normal;font-stretch:normal;font-size:9px;font-family:Metropolis;-inkscape-font-specification:Metropolis-Regular;writing-mode:lr-tb;fill:#6b4447;fill-opacity:1;fill-rule:nonzero;stroke:none"
       transform="matrix(1,0,0,-1,13.1431,204.9893)"><tspan
         id="tspan118"
         y="0"
         x="0 10.629 13.644 20.214001 27.584999 34.946999 43.110001 49.005001 56.754002 59.778 67.608002 75.204002 78.713997 86.328003 92.745003 100.269 107.874 114.408 117.918 126.081 132.453 135.963 143.658 151.48801 158.427 161.92799 170.091 176.463 179.97301 186.543 193.905 199.548">WITHHOLDING USAGE OF ANY OF THE </tspan><tspan
         id="tspan120"
         y="9.9989996"
         x="0 6.75 13.284 21.114 27.684 34.217999 41.976002 45.486 51.903 58.598999 66.293999 73.305 79.848">RENTED SPACE*</tspan></text>
<path
       id="path124"
       style="fill:#d075c1;fill-opacity:1;fill-rule:nonzero;stroke:none"
       d="m 13.143,181.989 h 27 v -19 h -27 z" /><text
       id="text128"
       style="font-variant:normal;font-weight:900;font-stretch:normal;font-size:11px;font-family:'Metropolis Black';-inkscape-font-specification:Metropolis-Black;writing-mode:lr-tb;fill:#ffffff;fill-opacity:1;fill-rule:nonzero;stroke:none"
       transform="matrix(1,0,0,-1,32.1274,168.1162)"><tspan
         id="tspan126"
         y="0"
         x="0">1</tspan></text>
<text
       id="text138"
       style="font-variant:normal;font-weight:normal;font-stretch:normal;font-size:9px;font-family:Metropolis;-inkscape-font-specification:Metropolis-Regular;writing-mode:lr-tb;fill:#6b4447;fill-opacity:1;fill-rule:nonzero;stroke:none"
       transform="matrix(1,0,0,-1,13.1431,152.9893)"><tspan
         id="tspan130"
         y="0"
         x="0 6.75 13.284 21.870001 30.033001 37.728001 40.751999 48.582001 56.178001 59.688 66.258003 73.620003 80.163002 83.672997 90.207001 98.037003 104.607 111.357 119.052 126.882 133.90199 140.436 143.946 151.69501 159.858 168.021 174.771 178.047 181.548 188.56799 196.263 203.877 210.29401 213.30901 221.13901 228.735 232.245 238.815 246.177 251.82001">REMOVING THE ENTRANCE DOOR, CAUSING THE </tspan><tspan
         id="tspan132"
         y="9.9989996"
         x="0 5.895 14.058 21.077999 27.917999 31.419001 37.602001 45.764999 49.265999 55.835999 63.207001 69.740997 73.241997 79.785004 87.614998 94.184998 100.935 108.63 116.46 123.48 130.01401 133.524 141.27299 149.436 157.599 164.34 167.85001 174.033 182.196 185.70599 193.536 201.69901 208.269 211.77 222.399 230.562 237.312 244.15199 246.528">LOCK TO THE ENTRANCE DOOR TO NOT WORK, </tspan><tspan
         id="tspan134"
         y="19.997999"
         x="0 8.1630001 14.904 18.414 25.434 32.796001 40.491001 48.320999 55.917 58.941002 66.771004 74.366997 77.876999 84.446999 91.808998 98.351997 101.853 107.748 115.911 122.922 129.76199 133.263 143.892 146.907 153.47701 160.839 169.002 176.616 183.186 186.696 194.29201 197.31599 205.011 208.026 215.856 223.461 226.97099 233.91 242.073 248.787">OR CHANGING THE LOCK WITHOUT GIVING YOU </tspan><tspan
         id="tspan136"
         y="29.997"
         x="0 6.5700002 13.932 20.475 23.985001 30.825001 37.368 44.306999">THE KEY*</tspan></text>
<path
       id="path140"
       style="fill:#d075c1;fill-opacity:1;fill-rule:nonzero;stroke:none"
       d="m 13.143,110.639 h 129 v -19.65 h -129 z" /><text
       id="text144"
       style="font-variant:normal;font-weight:900;font-stretch:normal;font-size:11px;font-family:'Metropolis Black';-inkscape-font-specification:Metropolis-Black;writing-mode:lr-tb;fill:#ffffff;fill-opacity:1;fill-rule:nonzero;stroke:none"
       transform="matrix(1,0,0,-1,132.2134,96.4414)"><tspan
         id="tspan142"
         y="0"
         x="0">5</tspan></text>
<text
       id="text152"
       style="font-variant:normal;font-weight:normal;font-stretch:normal;font-size:9px;font-family:Metropolis;-inkscape-font-specification:Metropolis-Regular;writing-mode:lr-tb;fill:#6b4447;fill-opacity:1;fill-rule:nonzero;stroke:none"
       transform="matrix(1,0,0,-1,13.1431,80.9893)"><tspan
         id="tspan146"
         y="0"
         x="0 6.5430002 14.373 21.978001 29.493 37.098 40.112999 47.943001 55.548 59.049 62.073002 69.903 73.403999 81.098999 88.929001 95.867996 99.377998 107.541 114.111 121.482 128.01601 134.76601 138.267 145.008 151.55099 158.24699 164.78101 171.918 178.48801 185.03101 192.78 196.28999 203.166 211.32899 219.159 226.908 234.522 241.533 247.203">ENGAGING IN ANY OTHER REPEATED CONDUCT </tspan><tspan
         id="tspan148"
         y="9.9989996"
         x="0 6.5700002 13.932 21.069 27.639 31.139999 37.556999 45.171001 52.209 58.625999 64.566002 72.261002 80.091003 87.101997 90.125999 97.820999 103.707 109.602 116.541 120.051 123.075 130.905 137.47501 144.009 150.759 157.14 163.674 170.424 176.967 183.384 186.894 197.51401 200.53799 207.108 214.47 217.98 224.55 231.92101 237.564">THAT SUBSTANCIALLY INTERFERES WITH THE </tspan><tspan
         id="tspan150"
         y="19.997999"
         x="0 8.1630001 14.85 21.393 28.134001 35.262001 41.832001 44.855999 53.019001 60.848999 64.359001 72.522003 78.903 82.413002 89.351997 97.514999 105.129 111.879 115.38 122.418 130.032 136.44901 139.464 147.29401 153.83701 160.254">OPERATION OF YOUR BUSINESS</tspan></text>
<text
       id="text162"
       style="font-style:italic;font-variant:normal;font-weight:normal;font-stretch:normal;font-size:8px;font-family:Metropolis;-inkscape-font-specification:Metropolis-RegularItalic;writing-mode:lr-tb;fill:#6b4447;fill-opacity:1;fill-rule:nonzero;stroke:none"
       transform="matrix(1,0,0,-1,13.1431,36.9893)"><tspan
         id="tspan154"
         y="0"
         x="0 3.2720001 3.2720001 8.1440001 13.2 16.312 23.472 27.431999 29.752001 34.807999 37.608002 39.928001 44.664001 49.784 52.896 58.015999 61.976002 65.935997 73.096001 77.639999 82.375999 85.360001 87.68 90.664001 95.400002 100.52 103.504 105.824 110.944 114.056 118.6 120.92 125.656 130.71201 133.696 136.01601 137.832 139.632 143.592 146.576 151.12 156.248 158.56799 160.368 165.104 167.424 170.408 175.144 179.688 182.008 186.272 191.328 198.48801 205.64799 210.192 213.304 217.65601 219.45599 224.576">* Forms of harassment that are not listed in the commercial</tspan><tspan
         id="tspan156"
         y="10"
         x="3.2720001 6.256 10.8 15.536 20.656 25.392 28.375999 30.695999 35.816002 40.551998 43.535999 45.335999 48.312 53.048 58.167999 61.279999 66.400002 70.360001 74.32 81.480003 86.024002 90.760002 93.744003 96.064003 97.879997 103 109.664 111.984 117.112 121.848 124.832 127.152 131.888 137.008 141.24001 145.784 148.104 153.23199 157.776 162.32001 167.056 169.37601 171.17599 176.304 180.84801 185.584 188.56799 190.368 193.168 194.968 199.51199 204.64 206.96001 212.08 216.03999 218.36 223.48801 226.60001 231.144 235.336 240.45599 242.272 246.81599 251.552">tenant anti-harassment law but have been identified as prevalent</tspan><tspan
         id="tspan158"
         y="20"
         x="3.2720001 8.3999996 13.144 15.464 22.624001 27.167999 30.280001 34.632 39.368 44.487999 49.223999 52.208 54.528 59.584 62.695999 67.655998 72.776001 77.512001 79.311996 83.431999 87.975998 91.087997 95.047997 97.367996 102.488 107.224 112.352 114.672 121.832 126.376 129.48801 133.84 138.576 143.696 148.43201 151.416 153.73599 155.552 160.09599 165.216 170.34399 174.888 178 181.96001 184.28 190.944 192.744 195.728 200.464 202.784 205.584 207.384 210.496 214.45599 217.44 222.17599 227.29601 232.032">by merchant organizers and merchant leaders with firsthand</tspan><tspan
         id="tspan160"
         y="30"
         x="3.2720001 7.816 12.224 17.351999 21.896 25.007999 26.808001 31.351999 36.088001 40.439999">experience</tspan></text>
</g></svg>