<?xml version="1.0" encoding="utf-8"?>
<!-- Generator: Adobe Illustrator 27.0.0, SVG Export Plug-In . SVG Version: 6.00 Build 0)  -->
<svg version="1.1" id="Layer_1" xmlns="http://www.w3.org/2000/svg" xmlns:xlink="http://www.w3.org/1999/xlink" x="0px" y="0px"
	 viewBox="0 0 292.3 690.8" style="enable-background:new 0 0 292.3 690.8;" xml:space="preserve">
<style type="text/css">
	.st0{fill:none;}
	.st1{fill:#010101;}
	.st2{font-family:'Metropolis-Bold';}
	.st3{font-size:12px;}
	.st4{fill:#CE8CBD;}
	.st5{fill:#FFFFFF;}
	.st6{font-family:'Metropolis-Black';}
	.st7{font-size:11px;}
	.st8{fill:#72504F;}
	.st9{font-family:'Metropolis-Regular';}
	.st10{font-size:9px;}
	.st11{font-family:'Metropolis-RegularItalic';}
	.st12{font-size:8px;}
</style>
<line class="st0" x1="311.2" y1="763.7" x2="311.2" y2="-28.3"/>
<text transform="matrix(1 0 0 1 17.247 17.9741)"><tspan x="0" y="0" class="st1 st2 st3">IN</tspan><tspan x="12.5" y="0" class="st1 st2 st3">S</tspan></text>
<text transform="matrix(1 0 0 1 37.2451 17.9741)" class="st1 st2 st3">T</text>
<text transform="matrix(1 0 0 1 44.8037 17.9741)"><tspan x="0" y="0" class="st1 st2 st3">ANCES OF HARASSMENT</tspan><tspan x="149.3" y="0" class="st1 st2 st3"> </tspan></text>
<text transform="matrix(1 0 0 1 17.248 32.1581)" class="st1 st2 st3">E</text>
<text transform="matrix(1 0 0 1 24.83 32.1581)" class="st1 st2 st3">X</text>
<text transform="matrix(1 0 0 1 33.2519 32.1581)" class="st1 st2 st3">P</text>
<text transform="matrix(1 0 0 1 41.0615 32.1581)" class="st1 st2 st3">E</text>
<text transform="matrix(1 0 0 1 48.6435 32.1581)" class="st1 st2 st3">R</text>
<text transform="matrix(1 0 0 1 56.6699 32.1581)"><tspan x="0" y="0" class="st1 st2 st3">IENCED </tspan><tspan x="48.2" y="0" class="st1 st2 st3">B</tspan></text>
<text transform="matrix(1 0 0 1 113.1249 32.1581)"><tspan x="0" y="0" class="st1 st2 st3">Y SURVEYED</tspan><tspan x="77.2" y="0" class="st1 st2 st3"> </tspan></text>
<text transform="matrix(1 0 0 1 17.248 46.3422)"><tspan x="0" y="0" class="st1 st2 st3">MER</tspan><tspan x="25.9" y="0" class="st1 st2 st3">C</tspan></text>
<text transform="matrix(1 0 0 1 51.3915 46.3422)" class="st1 st2 st3">H</text>
<text transform="matrix(1 0 0 1 60.1972 46.3422)"><tspan x="0" y="0" class="st1 st2 st3">ANT</tspan><tspan x="25.6" y="0" class="st1 st2 st3">S</tspan></text>
<rect x="17.2" y="56.5" class="st4" width="232" height="20"/>
<text transform="matrix(1 0 0 1 238.9706 70.832)" class="st5 st6 st7">9</text>
<text transform="matrix(1 0 0 1 17.2363 86.4594)"><tspan x="0" y="0" class="st8 st9 st10">C</tspan><tspan x="7" y="0" class="st8 st9 st10">AUS</tspan><tspan x="28.7" y="0" class="st8 st9 st10">I</tspan><tspan x="31.8" y="0" class="st8 st9 st10">N</tspan><tspan x="39.6" y="0" class="st8 st9 st10">G </tspan><tspan x="50.7" y="0" class="st8 st9 st10">R</tspan><tspan x="57.4" y="0" class="st8 st9 st10">E</tspan><tspan x="64" y="0" class="st8 st9 st10">PE</tspan><tspan x="77.2" y="0" class="st8 st9 st10">A</tspan><tspan x="84.3" y="0" class="st8 st9 st10">TED</tspan><tspan x="105.2" y="0" class="st8 st9 st10"> </tspan><tspan x="108.7" y="0" class="st8 st9 st10">INT</tspan><tspan x="126.1" y="0" class="st8 st9 st10">E</tspan><tspan x="132.7" y="0" class="st8 st9 st10">R</tspan><tspan x="139.4" y="0" class="st8 st9 st10">R</tspan><tspan x="146.1" y="0" class="st8 st9 st10">U</tspan><tspan x="153.8" y="0" class="st8 st9 st10">P</tspan><tspan x="160.5" y="0" class="st8 st9 st10">TIONS O</tspan><tspan x="204.1" y="0" class="st8 st9 st10">R </tspan></text>
<text transform="matrix(1 0 0 1 17.2363 96.4584)"><tspan x="0" y="0" class="st8 st9 st10">DI</tspan><tspan x="10.8" y="0" class="st8 st9 st10">S</tspan><tspan x="17.2" y="0" class="st8 st9 st10">C</tspan><tspan x="24.1" y="0" class="st8 st9 st10">ONT</tspan><tspan x="46.6" y="0" class="st8 st9 st10">I</tspan><tspan x="49.6" y="0" class="st8 st9 st10">NUAN</tspan><tspan x="80.6" y="0" class="st8 st9 st10">C</tspan><tspan x="87.6" y="0" class="st8 st9 st10">ES OF YOU</tspan><tspan x="144.9" y="0" class="st8 st9 st10">R</tspan><tspan x="151.6" y="0" class="st8 st9 st10"> </tspan><tspan x="155.1" y="0" class="st8 st9 st10">E</tspan><tspan x="161.6" y="0" class="st8 st9 st10">SSENT</tspan><tspan x="195.4" y="0" class="st8 st9 st10">I</tspan><tspan x="198.4" y="0" class="st8 st9 st10">A</tspan><tspan x="206.1" y="0" class="st8 st9 st10">L </tspan></text>
<text transform="matrix(1 0 0 1 17.2363 106.4575)"><tspan x="0" y="0" class="st8 st9 st10">SE</tspan><tspan x="13" y="0" class="st8 st9 st10">R</tspan><tspan x="19.7" y="0" class="st8 st9 st10">V</tspan><tspan x="27.4" y="0" class="st8 st9 st10">I</tspan><tspan x="30.4" y="0" class="st8 st9 st10">C</tspan><tspan x="37.4" y="0" class="st8 st9 st10">E</tspan><tspan x="44" y="0" class="st8 st9 st10">S</tspan></text>
<rect x="17.2" y="118.5" class="st4" width="206.2" height="20"/>
<text transform="matrix(1 0 0 1 213.3906 132.832)" class="st5 st6 st7">8</text>
<text transform="matrix(1 0 0 1 17.2363 148.4594)"><tspan x="0" y="0" class="st8 st9 st10">USIN</tspan><tspan x="24.9" y="0" class="st8 st9 st10">G</tspan><tspan x="32.5" y="0" class="st8 st9 st10"> FO</tspan><tspan x="50.5" y="0" class="st8 st9 st10">RC</tspan><tspan x="64.3" y="0" class="st8 st9 st10">E </tspan><tspan x="74.3" y="0" class="st8 st9 st10">A</tspan><tspan x="81.9" y="0" class="st8 st9 st10">G</tspan><tspan x="89.5" y="0" class="st8 st9 st10">AINST YOU</tspan><tspan x="147.2" y="0" class="st8 st9 st10"> </tspan><tspan x="150.7" y="0" class="st8 st9 st10">OR</tspan><tspan x="165.6" y="0" class="st8 st9 st10"> </tspan><tspan x="169.1" y="0" class="st8 st9 st10">TH</tspan><tspan x="183.1" y="0" class="st8 st9 st10">RE</tspan><tspan x="196.4" y="0" class="st8 st9 st10">A</tspan><tspan x="203.5" y="0" class="st8 st9 st10">TEN</tspan><tspan x="224.4" y="0" class="st8 st9 st10">I</tspan><tspan x="227.4" y="0" class="st8 st9 st10">N</tspan><tspan x="235.3" y="0" class="st8 st9 st10">G </tspan></text>
<text transform="matrix(1 0 0 1 17.2363 158.4584)"><tspan x="0" y="0" class="st8 st9 st10">T</tspan><tspan x="6.2" y="0" class="st8 st9 st10">O USE </tspan><tspan x="41.9" y="0" class="st8 st9 st10">F</tspan><tspan x="48.3" y="0" class="st8 st9 st10">O</tspan><tspan x="56.5" y="0" class="st8 st9 st10">RC</tspan><tspan x="70.2" y="0" class="st8 st9 st10">E </tspan><tspan x="80.3" y="0" class="st8 st9 st10">A</tspan><tspan x="87.8" y="0" class="st8 st9 st10">GA</tspan><tspan x="103.1" y="0" class="st8 st9 st10">I</tspan><tspan x="106.1" y="0" class="st8 st9 st10">NST</tspan><tspan x="126.9" y="0" class="st8 st9 st10"> </tspan><tspan x="130.4" y="0" class="st8 st9 st10">YOU O</tspan><tspan x="164.8" y="0" class="st8 st9 st10">R</tspan><tspan x="171.6" y="0" class="st8 st9 st10"> YOU</tspan><tspan x="197.8" y="0" class="st8 st9 st10">R </tspan></text>
<text transform="matrix(1 0 0 1 225.3437 158.4584)" class="st8 st9 st10"> </text>
<text transform="matrix(1 0 0 1 17.2363 168.4574)"><tspan x="0" y="0" class="st8 st9 st10">CL</tspan><tspan x="12.9" y="0" class="st8 st9 st10">I</tspan><tspan x="15.9" y="0" class="st8 st9 st10">E</tspan><tspan x="22.5" y="0" class="st8 st9 st10">NTS/</tspan><tspan x="47.9" y="0" class="st8 st9 st10">C</tspan><tspan x="54.9" y="0" class="st8 st9 st10">US</tspan><tspan x="68.9" y="0" class="st8 st9 st10">T</tspan><tspan x="75.1" y="0" class="st8 st9 st10">OME</tspan><tspan x="98.4" y="0" class="st8 st9 st10">R</tspan><tspan x="105.2" y="0" class="st8 st9 st10">S</tspan></text>
<rect x="17.2" y="180.5" class="st4" width="180.4" height="20"/>
<text transform="matrix(1 0 0 1 187.9208 194.832)" class="st5 st6 st7">7</text>
<text transform="matrix(1 0 0 1 17.2363 210.4594)"><tspan x="0" y="0" class="st8 st9 st10">S</tspan><tspan x="6.4" y="0" class="st8 st9 st10">T</tspan><tspan x="12.4" y="0" class="st8 st9 st10">A</tspan><tspan x="20.1" y="0" class="st8 st9 st10">R</tspan><tspan x="26.8" y="0" class="st8 st9 st10">T</tspan><tspan x="33.4" y="0" class="st8 st9 st10">I</tspan><tspan x="36.4" y="0" class="st8 st9 st10">N</tspan><tspan x="44.2" y="0" class="st8 st9 st10">G</tspan><tspan x="51.8" y="0" class="st8 st9 st10"> </tspan><tspan x="55.3" y="0" class="st8 st9 st10">C</tspan><tspan x="62.2" y="0" class="st8 st9 st10">OU</tspan><tspan x="78" y="0" class="st8 st9 st10">R</tspan><tspan x="84.7" y="0" class="st8 st9 st10">T P</tspan><tspan x="101.5" y="0" class="st8 st9 st10">R</tspan><tspan x="108.2" y="0" class="st8 st9 st10">O</tspan><tspan x="116.4" y="0" class="st8 st9 st10">C</tspan><tspan x="123.4" y="0" class="st8 st9 st10">E</tspan><tspan x="129.9" y="0" class="st8 st9 st10">E</tspan><tspan x="136.5" y="0" class="st8 st9 st10">D</tspan><tspan x="144.2" y="0" class="st8 st9 st10">I</tspan><tspan x="147.2" y="0" class="st8 st9 st10">NGS </tspan><tspan x="172.6" y="0" class="st8 st9 st10">A</tspan><tspan x="180.1" y="0" class="st8 st9 st10">G</tspan><tspan x="187.7" y="0" class="st8 st9 st10">A</tspan><tspan x="195.4" y="0" class="st8 st9 st10">I</tspan><tspan x="198.4" y="0" class="st8 st9 st10">NST YO</tspan><tspan x="237.9" y="0" class="st8 st9 st10">U </tspan></text>
<text transform="matrix(1 0 0 1 17.2363 220.4584)"><tspan x="0" y="0" class="st8 st9 st10">WH</tspan><tspan x="18" y="0" class="st8 st9 st10">EN YOU</tspan><tspan x="58.6" y="0" class="st8 st9 st10"> </tspan><tspan x="62.1" y="0" class="st8 st9 st10">A</tspan><tspan x="69.8" y="0" class="st8 st9 st10">R</tspan><tspan x="76.5" y="0" class="st8 st9 st10">E NOT IN</tspan><tspan x="123.5" y="0" class="st8 st9 st10"> </tspan><tspan x="127" y="0" class="st8 st9 st10">D</tspan><tspan x="134.8" y="0" class="st8 st9 st10">E</tspan><tspan x="141.3" y="0" class="st8 st9 st10">FAU</tspan><tspan x="163" y="0" class="st8 st9 st10">L</tspan><tspan x="168.6" y="0" class="st8 st9 st10">T UN</tspan><tspan x="194.1" y="0" class="st8 st9 st10">D</tspan><tspan x="201.9" y="0" class="st8 st9 st10">E</tspan><tspan x="208.4" y="0" class="st8 st9 st10">R</tspan><tspan x="215.2" y="0" class="st8 st9 st10"> YOU</tspan><tspan x="241.4" y="0" class="st8 st9 st10">R </tspan></text>
<text transform="matrix(1 0 0 1 17.2363 230.4574)"><tspan x="0" y="0" class="st8 st9 st10">L</tspan><tspan x="5.9" y="0" class="st8 st9 st10">EAS</tspan><tspan x="26.5" y="0" class="st8 st9 st10">E</tspan></text>
<rect x="17.2" y="242.5" class="st4" width="103.1" height="20"/>
<text transform="matrix(1 0 0 1 109.996 256.832)" class="st5 st6 st7">4</text>
<text transform="matrix(1 0 0 1 17.2363 272.4594)"><tspan x="0" y="0" class="st8 st9 st10">A</tspan><tspan x="7.7" y="0" class="st8 st9 st10">C</tspan><tspan x="14.7" y="0" class="st8 st9 st10">C</tspan><tspan x="21.7" y="0" class="st8 st9 st10">E</tspan><tspan x="28.3" y="0" class="st8 st9 st10">SIN</tspan><tspan x="45.5" y="0" class="st8 st9 st10">G</tspan><tspan x="53.1" y="0" class="st8 st9 st10"> YOUR</tspan><tspan x="86.1" y="0" class="st8 st9 st10"> </tspan><tspan x="89.6" y="0" class="st8 st9 st10">C</tspan><tspan x="96.5" y="0" class="st8 st9 st10">OMME</tspan><tspan x="128.4" y="0" class="st8 st9 st10">RCI</tspan><tspan x="145.1" y="0" class="st8 st9 st10">AL</tspan><tspan x="158.7" y="0" class="st8 st9 st10"> </tspan><tspan x="162.2" y="0" class="st8 st9 st10">S</tspan><tspan x="168.6" y="0" class="st8 st9 st10">P</tspan><tspan x="175.3" y="0" class="st8 st9 st10">AC</tspan><tspan x="190" y="0" class="st8 st9 st10">E </tspan></text>
<text transform="matrix(1 0 0 1 217.414 272.4594)" class="st8 st9 st10"> </text>
<text transform="matrix(1 0 0 1 17.2363 282.4584)"><tspan x="0" y="0" class="st8 st9 st10">I</tspan><tspan x="3" y="0" class="st8 st9 st10">NAP</tspan><tspan x="25.2" y="0" class="st8 st9 st10">P</tspan><tspan x="31.9" y="0" class="st8 st9 st10">ROP</tspan><tspan x="53.5" y="0" class="st8 st9 st10">RIE</tspan><tspan x="69.8" y="0" class="st8 st9 st10">T</tspan><tspan x="76.4" y="0" class="st8 st9 st10">L</tspan><tspan x="82.3" y="0" class="st8 st9 st10">Y OR</tspan><tspan x="107.6" y="0" class="st8 st9 st10"> W</tspan><tspan x="121.8" y="0" class="st8 st9 st10">H</tspan><tspan x="129.1" y="0" class="st8 st9 st10">I</tspan><tspan x="132.1" y="0" class="st8 st9 st10">T</tspan><tspan x="138.7" y="0" class="st8 st9 st10">H</tspan><tspan x="146.1" y="0" class="st8 st9 st10">OUT</tspan><tspan x="168.4" y="0" class="st8 st9 st10"> </tspan><tspan x="171.9" y="0" class="st8 st9 st10">YOU</tspan><tspan x="194.6" y="0" class="st8 st9 st10">R </tspan></text>
<text transform="matrix(1 0 0 1 17.2363 292.4575)"><tspan x="0" y="0" class="st8 st9 st10">C</tspan><tspan x="6.9" y="0" class="st8 st9 st10">ONS</tspan><tspan x="29.3" y="0" class="st8 st9 st10">E</tspan><tspan x="35.8" y="0" class="st8 st9 st10">NT</tspan><tspan x="50.2" y="0" class="st8 st9 st10">*</tspan></text>
<rect x="17.2" y="304.5" class="st4" width="76.5" height="20"/>
<text transform="matrix(1 0 0 1 83.9775 318.832)" class="st5 st6 st7">3</text>
<text transform="matrix(1 0 0 1 17.2363 334.4594)"><tspan x="0" y="0" class="st8 st9 st10">I</tspan><tspan x="3" y="0" class="st8 st9 st10">NTE</tspan><tspan x="24" y="0" class="st8 st9 st10">R</tspan><tspan x="30.7" y="0" class="st8 st9 st10">F</tspan><tspan x="37.1" y="0" class="st8 st9 st10">ER</tspan><tspan x="50.4" y="0" class="st8 st9 st10">IN</tspan><tspan x="61.2" y="0" class="st8 st9 st10">G</tspan><tspan x="68.8" y="0" class="st8 st9 st10"> W</tspan><tspan x="82.9" y="0" class="st8 st9 st10">I</tspan><tspan x="86" y="0" class="st8 st9 st10">T</tspan><tspan x="92.5" y="0" class="st8 st9 st10">H</tspan><tspan x="99.9" y="0" class="st8 st9 st10"> YOU</tspan><tspan x="126.1" y="0" class="st8 st9 st10">R</tspan><tspan x="132.9" y="0" class="st8 st9 st10"> BUSIN</tspan><tspan x="168.3" y="0" class="st8 st9 st10">E</tspan><tspan x="174.8" y="0" class="st8 st9 st10">SS BY </tspan><tspan x="208.7" y="0" class="st8 st9 st10">D</tspan><tspan x="216.4" y="0" class="st8 st9 st10">OIN</tspan><tspan x="235.4" y="0" class="st8 st9 st10">G </tspan></text>
<text transform="matrix(1 0 0 1 17.2363 344.4584)"><tspan x="0" y="0" class="st8 st9 st10">UNN</tspan><tspan x="23.3" y="0" class="st8 st9 st10">E</tspan><tspan x="29.8" y="0" class="st8 st9 st10">C</tspan><tspan x="36.8" y="0" class="st8 st9 st10">E</tspan><tspan x="43.4" y="0" class="st8 st9 st10">SA</tspan><tspan x="57.5" y="0" class="st8 st9 st10">R</tspan><tspan x="63.9" y="0" class="st8 st9 st10">Y </tspan><tspan x="74.3" y="0" class="st8 st9 st10">C</tspan><tspan x="81.2" y="0" class="st8 st9 st10">ONST</tspan><tspan x="110.2" y="0" class="st8 st9 st10">R</tspan><tspan x="116.9" y="0" class="st8 st9 st10">UCTION</tspan><tspan x="157.2" y="0" class="st8 st9 st10"> </tspan><tspan x="160.7" y="0" class="st8 st9 st10">OR</tspan><tspan x="175.6" y="0" class="st8 st9 st10"> </tspan><tspan x="179.1" y="0" class="st8 st9 st10">REPA</tspan><tspan x="206.8" y="0" class="st8 st9 st10">I</tspan><tspan x="209.8" y="0" class="st8 st9 st10">R</tspan><tspan x="216.5" y="0" class="st8 st9 st10">S</tspan></text>
<rect x="17.2" y="356.8" class="st4" width="51.5" height="19.6"/>
<text transform="matrix(1 0 0 1 58.8984 371.0073)" class="st5 st6 st7">2</text>
<text transform="matrix(1 0 0 1 17.2363 386.4594)"><tspan x="0" y="0" class="st8 st9 st10">R</tspan><tspan x="6.7" y="0" class="st8 st9 st10">EMOVIN</tspan><tspan x="48.6" y="0" class="st8 st9 st10">G</tspan><tspan x="56.2" y="0" class="st8 st9 st10"> YOUR</tspan><tspan x="89.2" y="0" class="st8 st9 st10"> </tspan><tspan x="92.7" y="0" class="st8 st9 st10">PERSONA</tspan><tspan x="142.7" y="0" class="st8 st9 st10">L</tspan><tspan x="148.6" y="0" class="st8 st9 st10"> P</tspan><tspan x="158.8" y="0" class="st8 st9 st10">R</tspan><tspan x="165.6" y="0" class="st8 st9 st10">O</tspan><tspan x="173.7" y="0" class="st8 st9 st10">P</tspan><tspan x="180.4" y="0" class="st8 st9 st10">E</tspan><tspan x="187" y="0" class="st8 st9 st10">R</tspan><tspan x="193.7" y="0" class="st8 st9 st10">TY </tspan><tspan x="210.7" y="0" class="st8 st9 st10">F</tspan><tspan x="217.1" y="0" class="st8 st9 st10">RO</tspan><tspan x="232" y="0" class="st8 st9 st10">M </tspan></text>
<text transform="matrix(1 0 0 1 17.2363 396.4584)"><tspan x="0" y="0" class="st8 st9 st10">T</tspan><tspan x="6.6" y="0" class="st8 st9 st10">H</tspan><tspan x="13.9" y="0" class="st8 st9 st10">E </tspan><tspan x="24" y="0" class="st8 st9 st10">C</tspan><tspan x="30.9" y="0" class="st8 st9 st10">OMME</tspan><tspan x="62.7" y="0" class="st8 st9 st10">RC</tspan><tspan x="76.5" y="0" class="st8 st9 st10">IAL</tspan><tspan x="93.1" y="0" class="st8 st9 st10"> </tspan><tspan x="96.6" y="0" class="st8 st9 st10">PRO</tspan><tspan x="118.2" y="0" class="st8 st9 st10">P</tspan><tspan x="124.9" y="0" class="st8 st9 st10">E</tspan><tspan x="131.4" y="0" class="st8 st9 st10">R</tspan><tspan x="138.2" y="0" class="st8 st9 st10">T</tspan><tspan x="144.8" y="0" class="st8 st9 st10">Y</tspan></text>
<rect x="17.2" y="408.8" class="st4" width="51.5" height="19.6"/>
<text transform="matrix(1 0 0 1 58.8984 423.0073)" class="st5 st6 st7">2</text>
<text transform="matrix(1 0 0 1 17.2363 438.4594)"><tspan x="0" y="0" class="st8 st9 st10">P</tspan><tspan x="6.7" y="0" class="st8 st9 st10">R</tspan><tspan x="13.4" y="0" class="st8 st9 st10">EV</tspan><tspan x="27.7" y="0" class="st8 st9 st10">E</tspan><tspan x="34.2" y="0" class="st8 st9 st10">NT</tspan><tspan x="48.6" y="0" class="st8 st9 st10">I</tspan><tspan x="51.6" y="0" class="st8 st9 st10">N</tspan><tspan x="59.5" y="0" class="st8 st9 st10">G</tspan><tspan x="67" y="0" class="st8 st9 st10"> YOU FROM </tspan><tspan x="130.2" y="0" class="st8 st9 st10">E</tspan><tspan x="136.7" y="0" class="st8 st9 st10">NTE</tspan><tspan x="157.7" y="0" class="st8 st9 st10">RI</tspan><tspan x="167.4" y="0" class="st8 st9 st10">N</tspan><tspan x="175.2" y="0" class="st8 st9 st10">G</tspan><tspan x="182.8" y="0" class="st8 st9 st10"> YOU</tspan><tspan x="209.1" y="0" class="st8 st9 st10">R </tspan></text>
<text transform="matrix(1 0 0 1 17.2363 448.4584)"><tspan x="0" y="0" class="st8 st9 st10">C</tspan><tspan x="6.9" y="0" class="st8 st9 st10">OMME</tspan><tspan x="38.8" y="0" class="st8 st9 st10">RCI</tspan><tspan x="55.5" y="0" class="st8 st9 st10">AL SPA</tspan><tspan x="93.4" y="0" class="st8 st9 st10">C</tspan><tspan x="100.4" y="0" class="st8 st9 st10">E</tspan></text>
<text transform="matrix(1 0 0 1 123.3642 448.4584)" class="st8 st9 st10"> </text>
<rect x="17.2" y="454.8" class="st4" width="51.5" height="19.6"/>
<text transform="matrix(1 0 0 1 58.8984 469.0073)" class="st5 st6 st7">2</text>
<text transform="matrix(1 0 0 1 17.2363 484.4594)"><tspan x="0" y="0" class="st8 st9 st10">WI</tspan><tspan x="13.6" y="0" class="st8 st9 st10">T</tspan><tspan x="20.2" y="0" class="st8 st9 st10">HH</tspan><tspan x="34.9" y="0" class="st8 st9 st10">O</tspan><tspan x="43.1" y="0" class="st8 st9 st10">L</tspan><tspan x="49" y="0" class="st8 st9 st10">D</tspan><tspan x="56.7" y="0" class="st8 st9 st10">I</tspan><tspan x="59.8" y="0" class="st8 st9 st10">NG</tspan><tspan x="75.2" y="0" class="st8 st9 st10"> </tspan><tspan x="78.7" y="0" class="st8 st9 st10">US</tspan><tspan x="92.7" y="0" class="st8 st9 st10">A</tspan><tspan x="100.2" y="0" class="st8 st9 st10">G</tspan><tspan x="107.8" y="0" class="st8 st9 st10">E OF ANY</tspan><tspan x="158.4" y="0" class="st8 st9 st10"> </tspan><tspan x="161.9" y="0" class="st8 st9 st10">O</tspan><tspan x="170.1" y="0" class="st8 st9 st10">F</tspan><tspan x="176.4" y="0" class="st8 st9 st10"> T</tspan><tspan x="186.5" y="0" class="st8 st9 st10">H</tspan><tspan x="193.9" y="0" class="st8 st9 st10">E </tspan></text>
<text transform="matrix(1 0 0 1 17.2363 494.4584)"><tspan x="0" y="0" class="st8 st9 st10">R</tspan><tspan x="6.7" y="0" class="st8 st9 st10">ENTE</tspan><tspan x="34.2" y="0" class="st8 st9 st10">D </tspan><tspan x="45.5" y="0" class="st8 st9 st10">S</tspan><tspan x="51.9" y="0" class="st8 st9 st10">P</tspan><tspan x="58.6" y="0" class="st8 st9 st10">AC</tspan><tspan x="73.3" y="0" class="st8 st9 st10">E</tspan><tspan x="79.8" y="0" class="st8 st9 st10">*</tspan></text>
<rect x="17.2" y="507.5" class="st4" width="27" height="19"/>
<text transform="matrix(1 0 0 1 36.2206 521.3315)" class="st5 st6 st7">1</text>
<text transform="matrix(1 0 0 1 17.2363 536.4594)"><tspan x="0" y="0" class="st8 st9 st10">R</tspan><tspan x="6.7" y="0" class="st8 st9 st10">EMOVIN</tspan><tspan x="48.6" y="0" class="st8 st9 st10">G</tspan><tspan x="56.2" y="0" class="st8 st9 st10"> T</tspan><tspan x="66.3" y="0" class="st8 st9 st10">H</tspan><tspan x="73.6" y="0" class="st8 st9 st10">E ENT</tspan><tspan x="104.6" y="0" class="st8 st9 st10">R</tspan><tspan x="111.4" y="0" class="st8 st9 st10">ANC</tspan><tspan x="133.9" y="0" class="st8 st9 st10">E</tspan><tspan x="140.4" y="0" class="st8 st9 st10"> </tspan><tspan x="143.9" y="0" class="st8 st9 st10">D</tspan><tspan x="151.7" y="0" class="st8 st9 st10">OOR, </tspan><tspan x="181.6" y="0" class="st8 st9 st10">C</tspan><tspan x="188.6" y="0" class="st8 st9 st10">AUS</tspan><tspan x="210.3" y="0" class="st8 st9 st10">I</tspan><tspan x="213.3" y="0" class="st8 st9 st10">NG</tspan><tspan x="228.7" y="0" class="st8 st9 st10"> </tspan><tspan x="232.2" y="0" class="st8 st9 st10">TH</tspan><tspan x="246.2" y="0" class="st8 st9 st10">E </tspan></text>
<text transform="matrix(1 0 0 1 17.2363 546.4584)"><tspan x="0" y="0" class="st8 st9 st10">L</tspan><tspan x="5.9" y="0" class="st8 st9 st10">OCK </tspan><tspan x="31.4" y="0" class="st8 st9 st10">T</tspan><tspan x="37.6" y="0" class="st8 st9 st10">O</tspan><tspan x="45.8" y="0" class="st8 st9 st10"> </tspan><tspan x="49.3" y="0" class="st8 st9 st10">T</tspan><tspan x="55.8" y="0" class="st8 st9 st10">H</tspan><tspan x="63.2" y="0" class="st8 st9 st10">E</tspan><tspan x="69.7" y="0" class="st8 st9 st10"> </tspan><tspan x="73.2" y="0" class="st8 st9 st10">ENT</tspan><tspan x="94.2" y="0" class="st8 st9 st10">R</tspan><tspan x="100.9" y="0" class="st8 st9 st10">ANC</tspan><tspan x="123.5" y="0" class="st8 st9 st10">E</tspan><tspan x="130" y="0" class="st8 st9 st10"> </tspan><tspan x="133.5" y="0" class="st8 st9 st10">D</tspan><tspan x="141.3" y="0" class="st8 st9 st10">OO</tspan><tspan x="157.6" y="0" class="st8 st9 st10">R</tspan><tspan x="164.3" y="0" class="st8 st9 st10"> </tspan><tspan x="167.8" y="0" class="st8 st9 st10">T</tspan><tspan x="174" y="0" class="st8 st9 st10">O NOT WO</tspan><tspan x="230.6" y="0" class="st8 st9 st10">R</tspan><tspan x="237.3" y="0" class="st8 st9 st10">K</tspan><tspan x="244.1" y="0" class="st8 st9 st10">, </tspan></text>
<text transform="matrix(1 0 0 1 17.2363 556.4575)"><tspan x="0" y="0" class="st8 st9 st10">O</tspan><tspan x="8.2" y="0" class="st8 st9 st10">R</tspan><tspan x="14.9" y="0" class="st8 st9 st10"> </tspan><tspan x="18.4" y="0" class="st8 st9 st10">C</tspan><tspan x="25.4" y="0" class="st8 st9 st10">HAN</tspan><tspan x="48.3" y="0" class="st8 st9 st10">G</tspan><tspan x="55.9" y="0" class="st8 st9 st10">IN</tspan><tspan x="66.8" y="0" class="st8 st9 st10">G</tspan><tspan x="74.4" y="0" class="st8 st9 st10"> T</tspan><tspan x="84.4" y="0" class="st8 st9 st10">H</tspan><tspan x="91.8" y="0" class="st8 st9 st10">E </tspan><tspan x="101.9" y="0" class="st8 st9 st10">L</tspan><tspan x="107.7" y="0" class="st8 st9 st10">OCK </tspan><tspan x="133.3" y="0" class="st8 st9 st10">WI</tspan><tspan x="146.9" y="0" class="st8 st9 st10">THOUT G</tspan><tspan x="194.3" y="0" class="st8 st9 st10">I</tspan><tspan x="197.3" y="0" class="st8 st9 st10">V</tspan><tspan x="205" y="0" class="st8 st9 st10">I</tspan><tspan x="208" y="0" class="st8 st9 st10">NG YO</tspan><tspan x="242.1" y="0" class="st8 st9 st10">U </tspan></text>
<text transform="matrix(1 0 0 1 17.2363 566.4565)"><tspan x="0" y="0" class="st8 st9 st10">T</tspan><tspan x="6.6" y="0" class="st8 st9 st10">H</tspan><tspan x="13.9" y="0" class="st8 st9 st10">E KEY</tspan><tspan x="44.3" y="0" class="st8 st9 st10">*</tspan></text>
<rect x="17.2" y="578.8" class="st4" width="129" height="19.6"/>
<text transform="matrix(1 0 0 1 136.3066 593.0073)" class="st5 st6 st7">5</text>
<text transform="matrix(1 0 0 1 17.2363 608.4594)"><tspan x="0" y="0" class="st8 st9 st10">ENG</tspan><tspan x="22" y="0" class="st8 st9 st10">A</tspan><tspan x="29.5" y="0" class="st8 st9 st10">GI</tspan><tspan x="40.1" y="0" class="st8 st9 st10">N</tspan><tspan x="47.9" y="0" class="st8 st9 st10">G</tspan><tspan x="55.5" y="0" class="st8 st9 st10"> </tspan><tspan x="59" y="0" class="st8 st9 st10">I</tspan><tspan x="62.1" y="0" class="st8 st9 st10">N</tspan><tspan x="69.9" y="0" class="st8 st9 st10"> </tspan><tspan x="73.4" y="0" class="st8 st9 st10">ANY</tspan><tspan x="95.8" y="0" class="st8 st9 st10"> </tspan><tspan x="99.3" y="0" class="st8 st9 st10">OT</tspan><tspan x="114.1" y="0" class="st8 st9 st10">H</tspan><tspan x="121.4" y="0" class="st8 st9 st10">E</tspan><tspan x="128" y="0" class="st8 st9 st10">R</tspan><tspan x="134.7" y="0" class="st8 st9 st10"> </tspan><tspan x="138.2" y="0" class="st8 st9 st10">R</tspan><tspan x="145" y="0" class="st8 st9 st10">EPE</tspan><tspan x="164.8" y="0" class="st8 st9 st10">A</tspan><tspan x="171.9" y="0" class="st8 st9 st10">T</tspan><tspan x="178.5" y="0" class="st8 st9 st10">ED</tspan><tspan x="192.8" y="0" class="st8 st9 st10"> </tspan><tspan x="196.3" y="0" class="st8 st9 st10">C</tspan><tspan x="203.1" y="0" class="st8 st9 st10">ON</tspan><tspan x="219.1" y="0" class="st8 st9 st10">D</tspan><tspan x="226.9" y="0" class="st8 st9 st10">UC</tspan><tspan x="241.5" y="0" class="st8 st9 st10">T </tspan></text>
<text transform="matrix(1 0 0 1 17.2363 618.4584)"><tspan x="0" y="0" class="st8 st9 st10">T</tspan><tspan x="6.6" y="0" class="st8 st9 st10">H</tspan><tspan x="13.9" y="0" class="st8 st9 st10">A</tspan><tspan x="21.1" y="0" class="st8 st9 st10">T SUBS</tspan><tspan x="58.6" y="0" class="st8 st9 st10">T</tspan><tspan x="64.6" y="0" class="st8 st9 st10">AN</tspan><tspan x="80.1" y="0" class="st8 st9 st10">C</tspan><tspan x="87.1" y="0" class="st8 st9 st10">IAL</tspan><tspan x="103.7" y="0" class="st8 st9 st10">L</tspan><tspan x="109.6" y="0" class="st8 st9 st10">Y </tspan><tspan x="120.1" y="0" class="st8 st9 st10">I</tspan><tspan x="123.1" y="0" class="st8 st9 st10">NT</tspan><tspan x="137.5" y="0" class="st8 st9 st10">E</tspan><tspan x="144" y="0" class="st8 st9 st10">RF</tspan><tspan x="157.1" y="0" class="st8 st9 st10">E</tspan><tspan x="163.7" y="0" class="st8 st9 st10">RES </tspan><tspan x="186.9" y="0" class="st8 st9 st10">W</tspan><tspan x="197.5" y="0" class="st8 st9 st10">ITH TH</tspan><tspan x="231.9" y="0" class="st8 st9 st10">E </tspan></text>
<text transform="matrix(1 0 0 1 259.2822 618.4584)" class="st8 st9 st10"> </text>
<text transform="matrix(1 0 0 1 17.2363 628.4575)"><tspan x="0" y="0" class="st8 st9 st10">OPE</tspan><tspan x="21.4" y="0" class="st8 st9 st10">R</tspan><tspan x="28.1" y="0" class="st8 st9 st10">A</tspan><tspan x="35.3" y="0" class="st8 st9 st10">T</tspan><tspan x="41.8" y="0" class="st8 st9 st10">I</tspan><tspan x="44.9" y="0" class="st8 st9 st10">ON OF YOUR</tspan><tspan x="111.9" y="0" class="st8 st9 st10"> </tspan><tspan x="115.4" y="0" class="st8 st9 st10">BUS</tspan><tspan x="136.4" y="0" class="st8 st9 st10">I</tspan><tspan x="139.5" y="0" class="st8 st9 st10">NES</tspan><tspan x="160.3" y="0" class="st8 st9 st10">S</tspan></text>
<text transform="matrix(1 0 0 1 17.2363 652.4594)" class="st8 st11 st12">*</text>
<text transform="matrix(1 0 0 1 20.5087 652.4594)" class="st8 st11 st12"> </text>
<text transform="matrix(1 0 0 1 20.5087 652.4594)"><tspan x="0" y="0" class="st8 st11 st12">Forms of harassment that are not listed in the </tspan><tspan x="178.7" y="0" class="st8 st11 st12">c</tspan><tspan x="183" y="0" class="st8 st11 st12">ommercial</tspan></text>
<text transform="matrix(1 0 0 1 20.5087 662.4594)"><tspan x="0" y="0" class="st8 st11 st12">tenant anti-harassment law but ha</tspan><tspan x="133.7" y="0" class="st8 st11 st12">v</tspan><tspan x="138" y="0" class="st8 st11 st12">e been identified as pre</tspan><tspan x="227.9" y="0" class="st8 st11 st12">v</tspan><tspan x="232.1" y="0" class="st8 st11 st12">alent</tspan></text>
<text transform="matrix(1 0 0 1 20.5087 672.4594)" class="st8 st11 st12">by merchant organizers and merchant leaders with firsthand</text>
<text transform="matrix(1 0 0 1 20.5087 682.4594)" class="st8 st11 st12">experience</text>
</svg>
