<?xml version="1.0" encoding="utf-8"?>
<!-- Generator: Adobe Illustrator 27.0.0, SVG Export Plug-In . SVG Version: 6.00 Build 0)  -->
<svg version="1.1" id="Layer_1" xmlns="http://www.w3.org/2000/svg" xmlns:xlink="http://www.w3.org/1999/xlink" x="0px" y="0px"
	 viewBox="0 0 258 311" style="enable-background:new 0 0 258 311;" xml:space="preserve">
<style type="text/css">
	.st0{fill:#9D2D86;}
	.st1{fill:#F15A2B;}
	.st2{fill:#9D2E87;}
	.st3{fill:#F15B2B;}
	.st4{fill:none;}
	.st5{fill:#59595B;}
	.st6{font-family:'Montserrat-Medium';}
	.st7{font-size:16px;}
	.st8{font-family:'Montserrat-SemiBold';}
	.st9{fill:#FFFFFF;}
	.st10{font-family:'Montserrat-Bold';}
	.st11{font-size:8.6795px;}
	.st12{font-size:11px;}
</style>
<g>
	<rect x="0" y="60.5" class="st0" width="172.8" height="19.2"/>
	<rect x="0" y="81.5" class="st1" width="54" height="19.2"/>
	<rect x="0" y="123.9" class="st2" width="199.2" height="19.2"/>
	<rect x="0" y="144.9" class="st3" width="85.2" height="19.2"/>
	<rect x="0" y="188.7" class="st2" width="51.6" height="19.8"/>
	<rect x="0" y="210.3" class="st3" width="45.6" height="21.2"/>
	<rect x="0" y="254" class="st2" width="258" height="19.8"/>
	<rect x="0" y="275.6" class="st3" width="224.4" height="19.2"/>
	<g>
		<rect class="st4" width="258" height="63.9"/>
		<text transform="matrix(1 0 0 1 0 13.5996)"><tspan x="0" y="0" class="st5 st6 st7">Compared to </tspan><tspan x="111.8" y="0" class="st1 st8 st7">merchants with a </tspan><tspan x="0" y="16.1" class="st1 st8 st7">lease</tspan><tspan x="42.5" y="16.1" class="st5 st6 st7">, merchants </tspan><tspan x="143.1" y="16.1" class="st0 st8 st7">without a </tspan><tspan x="0" y="32.2" class="st0 st8 st7">lease</tspan><tspan x="42.5" y="32.2" class="st5 st6 st7"> were more likely to:</tspan></text>
	</g>
	<g>
		<text transform="matrix(1 0 0 1 135.7448 73.2938)" class="st9 st10 st11">66.7%</text>
	</g>
	<g>
		<text transform="matrix(1 0 0 1 22.0534 94.2938)" class="st9 st10 st11">20.9%</text>
	</g>
	<g>
		<text transform="matrix(1 0 0 1 162.9148 137.2938)" class="st9 st10 st11">77.8%</text>
	</g>
	<g>
		<text transform="matrix(1 0 0 1 48.8156 157.2938)" class="st9 st10 st11">33.3%</text>
	</g>
	<g>
		<text transform="matrix(1 0 0 1 16.9714 201.9666)" class="st9 st10 st11">20.0%</text>
	</g>
	<g>
		<text transform="matrix(1 0 0 1 13.6145 224.2938)" class="st9 st10 st11">18.1%</text>
	</g>
	<g>
		<text transform="matrix(1 0 0 1 224.6848 266.9666)" class="st9 st10 st11">100%</text>
	</g>
	<g>
		<text transform="matrix(1 0 0 1 187.8508 289.2938)" class="st9 st10 st11">87.5%</text>
	</g>
	<text transform="matrix(1 0 0 1 0 112.924)" class="st5 st6 st12">potentially close in the next year</text>
	<text transform="matrix(1 0 0 1 0 176.1101)" class="st5 st6 st12">potentially relocate in the next year</text>
	<text transform="matrix(1 0 0 1 4.230122e-04 307.2935)" class="st5 st6 st12">be personally liable for rent</text>
	<text transform="matrix(1 0 0 1 2.246479e-04 244.604)" class="st5 st6 st12">have experienced any form of harassment</text>
</g>
</svg>
