<?xml version="1.0" encoding="utf-8"?>
<!-- Generator: Adobe Illustrator 27.0.0, SVG Export Plug-In . SVG Version: 6.00 Build 0)  -->
<svg version="1.1" id="Layer_1" xmlns="http://www.w3.org/2000/svg" xmlns:xlink="http://www.w3.org/1999/xlink" x="0px" y="0px"
	 viewBox="0 0 292.3 263.7" style="enable-background:new 0 0 292.3 263.7;" xml:space="preserve">
<style type="text/css">
	.st0{fill:none;}
	.st1{fill:#72504F;}
	.st2{font-family:'Metropolis-RegularItalic';}
	.st3{font-size:8px;}
	.st4{fill:#E6E7E7;}
	.st5{fill:#9D2E87;}
	.st6{font-family:'Metropolis-Bold';}
	.st7{font-size:14.4px;}
	.st8{font-size:8.64px;}
	.st9{fill:#E5E5E5;}
</style>
<line class="st0" x1="310" y1="415.8" x2="310" y2="-376.2"/>
<text transform="matrix(1 0 0 1 15.9595 254.6718)" class="st1 st2 st3">Source: CMOP sur</text>
<text transform="matrix(1 0 0 1 85.0595 254.6718)" class="st1 st2 st3">v</text>
<text transform="matrix(1 0 0 1 89.2595 254.6718)" class="st1 st2 st3">ey</text>
<path class="st4" d="M46.3,30.9c2.9,0,5.3-2.3,5.3-5.3c0,2.9,2.4,5.3,5.3,5.3c2.9,0,5.3-2.3,5.3-5.3l-8.3-12.8H26v18
	c2.5-0.4,4.5-2.5,4.5-5.2c0,2.9,2.4,5.3,5.3,5.3c2.9,0,5.3-2.3,5.3-5.3C41,28.4,43.4,30.9,46.3,30.9"/>
<path class="st4" d="M58.3,53.4V36.7c-0.5,0.2-1.1,0.2-1.5,0.2c-1.7,0-3.2-0.3-4.5-0.9v11.4h-9.1c-0.3-0.9-0.8-1.8-1.6-2.5
	C40.4,43.7,38.7,43,37,43h-2.6c-1.7,0-3.4,0.7-4.6,1.9c-0.7,0.7-1.2,1.6-1.6,2.5H26v6H58.3z"/>
<path class="st4" d="M35.8,31.6c-1.4,0-2.8,0.6-3.8,1.6s-1.6,2.4-1.6,3.8c0,1.4,0.6,2.8,1.6,3.8s2.4,1.6,3.8,1.6
	c1.4,0,2.8-0.6,3.8-1.6s1.6-2.4,1.6-3.8c0-1.4-0.6-2.8-1.6-3.8C38.5,32.2,37.2,31.6,35.8,31.6"/>
<path class="st5" d="M17.7,12.8L9.4,25.6c0,2.9,2.4,5.3,5.3,5.3s5.3-2.3,5.3-5.3c0,2.9,2.4,5.3,5.3,5.3c0.3,0,0.5,0,0.8-0.1v-18
	C26.1,12.8,17.7,12.8,17.7,12.8z"/>
<path class="st5" d="M19.2,36c-1.4,0.6-2.9,0.9-4.5,0.9c-0.5,0-1.1,0-1.5-0.2v16.7H26v-6h-6.8V36z"/>
<path class="st4" d="M46.3,155.9c2.9,0,5.3-2.3,5.3-5.3c0,2.9,2.4,5.3,5.3,5.3c2.9,0,5.3-2.3,5.3-5.3l-8.3-12.8H26v18
	c2.5-0.4,4.5-2.5,4.5-5.2c0,2.9,2.4,5.3,5.3,5.3c2.9,0,5.3-2.3,5.3-5.3C41,153.5,43.4,155.9,46.3,155.9"/>
<path class="st4" d="M58.3,178.5v-16.7c-0.5,0.2-1.1,0.2-1.5,0.2c-1.7,0-3.2-0.3-4.5-0.9v11.4h-9.1c-0.3-0.9-0.8-1.8-1.6-2.5
	c-1.2-1.2-2.9-1.9-4.6-1.9h-2.6c-1.7,0-3.4,0.7-4.6,1.9c-0.7,0.7-1.2,1.6-1.6,2.5H26v6H58.3z"/>
<path class="st4" d="M35.8,156.7c-1.4,0-2.8,0.6-3.8,1.6s-1.6,2.4-1.6,3.8c0,1.4,0.6,2.8,1.6,3.8s2.4,1.6,3.8,1.6
	c1.4,0,2.8-0.6,3.8-1.6s1.6-2.4,1.6-3.8c0-1.4-0.6-2.8-1.6-3.8C38.5,157.3,37.2,156.7,35.8,156.7"/>
<path class="st5" d="M17.7,137.9l-8.3,12.8c0,2.9,2.4,5.3,5.3,5.3s5.3-2.3,5.3-5.3c0,2.9,2.4,5.3,5.3,5.3c0.3,0,0.5,0,0.8-0.1v-18
	H17.7z"/>
<path class="st5" d="M19.2,161c-1.4,0.6-2.9,0.9-4.5,0.9c-0.5,0-1.1,0-1.5-0.2v16.7H26v-6h-6.8V161z"/>
<line class="st0" x1="310" y1="415.8" x2="310" y2="-376.2"/>
<text transform="matrix(1 0 0 1 14.0738 72.9687)" class="st1 st6 st7">25.0%</text>
<text transform="matrix(1 0 0 1 7.524 83.7685)" class="st1 st6 st3">plan to or may </text>
<text transform="matrix(1 0 0 1 13.7242 94.5693)" class="st1 st6 st3">close in the  </text>
<text transform="matrix(1 0 0 1 17.6841 105.3691)" class="st1 st6 st3">next </text>
<text transform="matrix(1 0 0 1 37.2841 105.3691)" class="st1 st6 st3">y</text>
<text transform="matrix(1 0 0 1 41.8841 105.3691)" class="st1 st6 st3">ear</text>
<text transform="matrix(1 0 0 1 88.4742 72.9687)" class="st1 st6 st7">37.0%</text>
<text transform="matrix(1 0 0 1 132.2925 72.9687)" class="st1 st6 st8">  </text>
<text transform="matrix(1 0 0 1 81.7877 83.7685)" class="st1 st6 st3">plan to or may </text>
<text transform="matrix(1 0 0 1 82.0836 94.5693)" class="st1 st6 st3">relocate in the </text>
<text transform="matrix(1 0 0 1 91.9478 105.3691)" class="st1 st6 st3">next </text>
<text transform="matrix(1 0 0 1 111.5478 105.3691)" class="st1 st6 st3">y</text>
<text transform="matrix(1 0 0 1 116.1478 105.3691)" class="st1 st6 st3">ear</text>
<text transform="matrix(1 0 0 1 167.6949 72.9687)" class="st1 st6 st7">61.1%</text>
<text transform="matrix(1 0 0 1 205.1343 72.9687)" class="st1 st6 st8">  </text>
<text transform="matrix(1 0 0 1 159.5787 83.7685)" class="st1 st6 st3">had their rent </text>
<text transform="matrix(1 0 0 1 162.3072 94.5693)" class="st1 st6 st3">increased at </text>
<text transform="matrix(1 0 0 1 163.4273 105.3691)" class="st1 st6 st3">least 10% in  </text>
<text transform="matrix(1 0 0 1 162.1148 116.1689)" class="st1 st6 st3">the last </text>
<text transform="matrix(1 0 0 1 193.4148 116.1689)" class="st1 st6 st3">y</text>
<text transform="matrix(1 0 0 1 198.1148 116.1689)" class="st1 st6 st3">ear</text>
<text transform="matrix(1 0 0 1 236.2535 72.9687)" class="st1 st6 st7">35.3%</text>
<text transform="matrix(1 0 0 1 278.8336 72.9687)" class="st1 st6 st8"> </text>
<text transform="matrix(1 0 0 1 236.2681 83.7685)" class="st1 st6 st3">ow</text>
<text transform="matrix(1 0 0 1 247.6681 83.7685)" class="st1 st6 st3">ed back </text>
<text transform="matrix(1 0 0 1 249.4918 94.5693)" class="st1 st6 st3">rent</text>
<text transform="matrix(1 0 0 1 14.5914 199.8974)" class="st1 st6 st7">27.6%</text>
<text transform="matrix(1 0 0 1 57.5748 199.8974)" class="st1 st6 st8"> </text>
<text transform="matrix(1 0 0 1 25.3638 210.6972)" class="st1 st6 st3">ow</text>
<text transform="matrix(1 0 0 1 36.7638 210.6972)" class="st1 st6 st3">ed </text>
<text transform="matrix(1 0 0 1 49.0357 210.6972)" class="st1 st6 st3"> </text>
<text transform="matrix(1 0 0 1 21.7076 221.498)" class="st1 st6 st3">utilities</text>
<text transform="matrix(1 0 0 1 86.4175 199.8974)" class="st1 st6 st7">88.5%</text>
<text transform="matrix(1 0 0 1 129.5162 199.8974)" class="st1 st6 st8">  </text>
<text transform="matrix(1 0 0 1 101.6431 210.6972)" class="st1 st6 st3">are  </text>
<text transform="matrix(1 0 0 1 87.4185 221.498)" class="st1 st6 st3">personally </text>
<text transform="matrix(1 0 0 1 80.315 232.2978)" class="st1 st6 st3">liable for their </text>
<text transform="matrix(1 0 0 1 99.9224 243.0976)" class="st1 st6 st3">rent</text>
<text transform="matrix(1 0 0 1 168.3218 199.8974)" class="st1 st6 st7">18.3%</text>
<text transform="matrix(1 0 0 1 208.2379 199.8974)" class="st1 st6 st8">  </text>
<text transform="matrix(1 0 0 1 178.8326 210.6972)" class="st1 st6 st3">ha</text>
<text transform="matrix(1 0 0 1 188.4326 210.6972)" class="st1 st6 st3">v</text>
<text transform="matrix(1 0 0 1 193.0326 210.6972)" class="st1 st6 st3">e  </text>
<text transform="matrix(1 0 0 1 163.8882 221.498)" class="st1 st6 st3">experienced </text>
<text transform="matrix(1 0 0 1 163.4078 232.2978)" class="st1 st6 st3">harrasement</text>
<text transform="matrix(1 0 0 1 237.4634 199.8974)" class="st1 st6 st7">91.7%</text>
<text transform="matrix(1 0 0 1 277.6236 199.8974)" class="st1 st6 st8"> </text>
<text transform="matrix(1 0 0 1 279.4236 199.8974)" class="st1 st6 st8"> </text>
<text transform="matrix(1 0 0 1 244.6558 210.6972)" class="st1 st6 st3">ha</text>
<text transform="matrix(1 0 0 1 254.2558 210.6972)" class="st1 st6 st3">v</text>
<text transform="matrix(1 0 0 1 258.8558 210.6972)" class="st1 st6 st3">e a </text>
<text transform="matrix(1 0 0 1 247.3755 221.498)" class="st1 st6 st3">lease</text>
<path class="st9" d="M105.1,25.7c0,2.9,2.4,5.3,5.3,5.3s5.3-2.3,5.3-5.3c0,2.9,2.4,5.3,5.3,5.3s5.3-2.3,5.3-5.3
	c0,2.9,2.4,5.3,5.3,5.3s5.3-2.3,5.3-5.3l-8.3-12.9H105v13.8C105.1,26.3,105.1,26,105.1,25.7"/>
<path class="st9" d="M133,53.8V36.9c-0.5,0.2-1.1,0.2-1.5,0.2c-1.7,0-3.2-0.3-4.5-0.9v11.6h-9.1c-0.3-0.9-0.8-1.8-1.6-2.5
	c-1.2-1.2-2.9-1.9-4.6-1.9h-2.6c-1.5,0-2.9,0.5-4,1.4v9.1H133V53.8z"/>
<path class="st9" d="M110.4,42.6c1.4,0,2.8-0.6,3.8-1.6s1.6-2.4,1.6-3.8c0-1.4-0.6-2.8-1.6-3.8s-2.4-1.6-3.8-1.6s-2.8,0.6-3.8,1.6
	s-1.6,2.4-1.6,3.8c0,1.4,0.6,2.8,1.6,3.8S109,42.6,110.4,42.6"/>
<path class="st5" d="M84,25.7c0,2.9,2.4,5.3,5.3,5.3s5.3-2.3,5.3-5.3c0,2.9,2.4,5.3,5.3,5.3c2.6,0,4.8-1.9,5.2-4.5V12.8H92.3
	L84,25.7z"/>
<path class="st5" d="M102.9,47.7h-9.1V36.2c-1.4,0.6-2.9,0.9-4.5,0.9c-0.5,0-1.1,0-1.5-0.2v16.9H105v-9.1c-0.2,0.2-0.4,0.3-0.6,0.5
	C103.8,45.9,103.2,46.8,102.9,47.7"/>
<path class="st9" d="M254.4,25.7c0,2.9,2.4,5.3,5.3,5.3s5.3-2.3,5.3-5.3c0,2.9,2.4,5.3,5.3,5.3s5.3-2.3,5.3-5.3
	c0,2.9,2.4,5.3,5.3,5.3s5.3-2.3,5.3-5.3l-8.3-12.9h-23.4v13.8C254.3,26.3,254.4,26,254.4,25.7"/>
<path class="st9" d="M282.2,53.8V36.9c-0.5,0.2-1.1,0.2-1.5,0.2c-1.7,0-3.2-0.3-4.5-0.9v11.6h-9.1c-0.3-0.9-0.8-1.8-1.6-2.5
	c-1.2-1.2-2.9-1.9-4.6-1.9h-2.6c-1.5,0-2.9,0.5-4,1.4v9.1h27.9V53.8z"/>
<path class="st9" d="M259.6,42.6c1.4,0,2.8-0.6,3.8-1.6s1.6-2.4,1.6-3.8c0-1.4-0.6-2.8-1.6-3.8s-2.4-1.6-3.8-1.6s-2.8,0.6-3.8,1.6
	c-1,1-1.6,2.4-1.6,3.8c0,1.4,0.6,2.8,1.6,3.8C256.9,42,258.2,42.6,259.6,42.6"/>
<path class="st5" d="M233.3,25.7c0,2.9,2.4,5.3,5.3,5.3c2.9,0,5.3-2.3,5.3-5.3c0,2.9,2.4,5.3,5.3,5.3c2.6,0,4.8-1.9,5.2-4.5V12.8
	h-12.7L233.3,25.7z"/>
<path class="st5" d="M252.2,47.7h-9.1V36.2c-1.4,0.6-2.9,0.9-4.5,0.9c-0.5,0-1.1,0-1.5-0.2v16.9h17.3v-9.1c-0.2,0.2-0.4,0.3-0.6,0.5
	C253,45.9,252.5,46.8,252.2,47.7"/>
<path class="st9" d="M190.3,25.6c0,2.9,2.4,5.3,5.3,5.3c2.9,0,5.3-2.3,5.3-5.3c0,2.9,2.4,5.3,5.3,5.3s5.3-2.3,5.3-5.3l-8.3-12.8
	h-16.3v17.8C188.8,29.8,190.3,27.9,190.3,25.6"/>
<path class="st9" d="M207.6,53.4V36.7c-0.5,0.2-1.1,0.2-1.5,0.2c-1.7,0-3.2-0.3-4.5-0.9v11.4h-9.1c-0.3-0.9-0.8-1.8-1.6-2.5
	c-1.1-1.1-2.6-1.8-4.1-1.9v10.4H207.6z"/>
<path class="st9" d="M188.8,40.7c1-1,1.6-2.4,1.6-3.8c0-1.4-0.6-2.8-1.6-3.8c-0.6-0.6-1.2-1-2-1.3V42
	C187.5,41.7,188.2,41.3,188.8,40.7"/>
<path class="st5" d="M158.7,25.6c0,2.9,2.4,5.3,5.3,5.3c2.9,0,5.3-2.3,5.3-5.3c0,2.9,2.4,5.3,5.3,5.3s5.3-2.3,5.3-5.3
	c0,2.9,2.4,5.3,5.3,5.3c0.6,0,1.2-0.1,1.8-0.3V12.8h-19.8L158.7,25.6z"/>
<path class="st5" d="M186.3,43h-2.6c-1.7,0-3.4,0.7-4.6,1.9c-0.7,0.7-1.2,1.6-1.6,2.5h-9.1V36c-1.4,0.6-2.9,0.9-4.5,0.9
	c-0.5,0-1.1,0-1.5-0.2v16.7h24.4V43C186.6,43,186.5,43,186.3,43z"/>
<path class="st5" d="M181.2,33.2c-1,1-1.6,2.4-1.6,3.8c0,1.4,0.6,2.8,1.6,3.8s2.4,1.6,3.8,1.6c0.6,0,1.2-0.1,1.8-0.3V31.9
	c-0.6-0.2-1.2-0.3-1.8-0.3C183.6,31.6,182.2,32.2,181.2,33.2"/>
<path class="st9" d="M127,150.8c0,2.9,2.5,5.3,5.5,5.3s5.5-2.3,5.5-5.3l-8.7-12.9h-3.5V154C126.5,153.1,127,152,127,150.8"/>
<path class="st9" d="M134.1,178.9V162c-0.5,0.2-1.1,0.2-1.6,0.2c-1.7,0-3.3-0.3-4.7-0.9v11.6h-1.9v6.1h8.2V178.9z"/>
<path class="st5" d="M82.8,150.8c0,2.9,2.5,5.3,5.5,5.3s5.5-2.3,5.5-5.3c0,2.9,2.5,5.3,5.5,5.3s5.5-2.3,5.5-5.3
	c0,2.9,2.5,5.3,5.5,5.3s5.5-2.3,5.5-5.3c0,2.9,2.5,5.3,5.5,5.3c1.8,0,3.4-0.8,4.4-2.1v-16.1H91.5L82.8,150.8z"/>
<path class="st5" d="M116.6,170.3c-1.3-1.2-3-1.9-4.8-1.9H109c-1.8,0-3.5,0.7-4.8,1.9c-0.7,0.7-1.3,1.6-1.6,2.5H93v-11.6
	c-1.4,0.6-3,0.9-4.7,0.9c-0.5,0-1.1,0-1.6-0.2v16.9h39.1v-6.1h-7.7C117.9,171.9,117.3,171,116.6,170.3"/>
<path class="st5" d="M110.4,156.9c-1.5,0-2.9,0.6-4,1.6c-1,1-1.6,2.4-1.6,3.8c0,1.4,0.6,2.8,1.6,3.8s2.5,1.6,4,1.6s2.9-0.6,4-1.6
	c1-1,1.6-2.4,1.6-3.8c0-1.4-0.6-2.8-1.6-3.8C113.3,157.5,111.9,156.9,110.4,156.9"/>
<path class="st9" d="M196.1,157.5c3,0,5.6-2.5,5.6-5.7c0,3.1,2.5,5.7,5.6,5.7c3,0,5.6-2.5,5.6-5.7l-8.7-13.9h-32.9v18.8
	c0.8,0.5,1.8,0.8,2.8,0.8c3,0,5.6-2.5,5.6-5.7c0,3.1,2.5,5.7,5.6,5.7c3,0,5.6-2.5,5.6-5.7C190.6,154.9,193.1,157.5,196.1,157.5"/>
<path class="st9" d="M208.8,182v-18.2c-0.5,0.2-1.1,0.2-1.6,0.2c-1.7,0-3.3-0.3-4.8-1v12.4h-9.6c-0.3-1-0.9-1.9-1.6-2.7
	c-1.3-1.3-3-2.1-4.9-2.1h-2.7c-1.8,0-3.6,0.8-4.9,2.1c-0.7,0.8-1.3,1.7-1.6,2.7h-6v6.5h37.7V182z"/>
<path class="st9" d="M185,158.3c-1.5,0-2.9,0.6-4,1.7c-1.1,1.1-1.6,2.6-1.6,4.1s0.6,3,1.6,4.1c1.1,1.1,2.5,1.7,4,1.7s2.9-0.6,4-1.7
	c1.1-1.1,1.6-2.6,1.6-4.1s-0.6-3-1.6-4.1C187.9,159,186.5,158.3,185,158.3"/>
<path class="st5" d="M166,137.9l-8.7,13.9c0,3.1,2.5,5.7,5.6,5.7c3,0,5.6-2.5,5.6-5.7c0,2.1,1.1,3.9,2.8,4.9v-18.8L166,137.9
	L166,137.9z"/>
<path class="st5" d="M167.6,163.1c-1.4,0.7-3,1-4.8,1c-0.5,0-1.1,0-1.6-0.2V182h9.9v-6.5h-3.5L167.6,163.1L167.6,163.1z"/>
<path class="st9" d="M281.8,157.5c3,0,5.6-2.5,5.6-5.7l-8.7-13.9h-0.9v17.8C278.8,156.8,280.3,157.5,281.8,157.5"/>
<path class="st9" d="M283.4,182v-18.2c-0.5,0.2-1.1,0.2-1.6,0.2c-1.5,0-2.8-0.2-4-0.7V182H283.4z"/>
<path class="st5" d="M231.9,151.8c0,3.1,2.5,5.7,5.6,5.7s5.6-2.5,5.6-5.7c0,3.1,2.5,5.7,5.6,5.7c3,0,5.6-2.5,5.6-5.7
	c0,3.1,2.5,5.7,5.6,5.7c3,0,5.6-2.5,5.6-5.7c0,3.1,2.5,5.7,5.6,5.7c3,0,5.6-2.5,5.6-5.7c0,1.5,0.6,2.9,1.5,3.9v-17.8H241
	L231.9,151.8z"/>
<path class="st5" d="M277.1,175.5h-9.6c-0.3-1-0.9-1.9-1.6-2.7c-1.3-1.3-3-2.1-4.9-2.1h-2.7c-1.8,0-3.6,0.8-4.9,2.1
	c-0.7,0.8-1.3,1.7-1.6,2.7h-9.6v-12.4c-1.4,0.7-3,1-4.8,1c-0.5,0-1.1,0-1.6-0.2V182h42v-18.7c-0.2-0.1-0.5-0.2-0.7-0.3L277.1,175.5
	L277.1,175.5z"/>
<path class="st5" d="M259.6,158.3c-1.5,0-2.9,0.6-4,1.7c-1.1,1.1-1.6,2.6-1.6,4.1s0.6,3,1.6,4.1c1.1,1.1,2.5,1.7,4,1.7
	s2.9-0.6,4-1.7c1.1-1.1,1.6-2.6,1.6-4.1s-0.6-3-1.6-4.1C262.6,159,261.1,158.3,259.6,158.3"/>
<line class="st0" x1="310" y1="415.8" x2="310" y2="-376.2"/>
</svg>
